<svg xmlns="http://www.w3.org/2000/svg" xmlns:xlink="http://www.w3.org/1999/xlink" version="1.1" x="0px" y="0px" viewBox="0 0 48 60" enable-background="new 0 0 48 48" xml:space="preserve"><path d="M46,7v12c0,2.7568359-2.2431641,5-5,5H27c-0.5522461,0-1-0.4477539-1-1s0.4477539-1,1-1h14c1.6542969,0,3-1.3457031,3-3V7  c0-1.6542969-1.3457031-3-3-3H8C6.3457031,4,5,5.3457031,5,7v16c0,0.5522461-0.4477539,1-1,1s-1-0.4477539-1-1V7  c0-2.7568359,2.2431641-5,5-5h33C43.7568359,2,46,4.2431641,46,7z M7.1425781,31.5146484l-3-5  c-0.1855469-0.3085938-0.1904297-0.6933594-0.0126953-1.0078125C4.3071289,25.1933594,4.6396484,25,5,25h2  c0-3.2319946,1.9304199-6.0159912,4.6954956-7.2769165C10.6638794,16.8064575,10,15.4851685,10,14c0-2.7568359,2.2431641-5,5-5  s5,2.2431641,5,5c0,1.4851685-0.6638794,2.8064575-1.6954956,3.7230835C21.0695801,18.9840088,23,21.7680054,23,25h2  c0.3603516,0,0.6928711,0.1933594,0.8701172,0.5068359c0.1777344,0.3144531,0.1728516,0.6992188-0.0126953,1.0078125l-3,5  C22.6699219,31.8271484,22.3388672,32,21.9990234,32c-0.175293,0-0.3525391-0.0458984-0.5136719-0.1425781  c-0.4736328-0.2841797-0.6269531-0.8984375-0.3427734-1.3720703L23.2338867,27H22H8H6.7661133l2.0913086,3.4853516  c0.2841797,0.4736328,0.1308594,1.0878906-0.3427734,1.3720703C8.0415039,32.1416016,7.4262695,31.9882813,7.1425781,31.5146484z   M15,17c1.6542969,0,3-1.3457031,3-3s-1.3457031-3-3-3s-3,1.3457031-3,3S13.3457031,17,15,17z M9,25h12c0-3.3085938-2.6914063-6-6-6  S9,21.6914063,9,25z M42.9951172,44.7773438C43.0112305,44.8486328,43.0200195,44.9238281,43.0200195,45  c0,0.5527344-0.4477539,1-1,1C42.0136719,46,42.0068359,46,42,46H30.0200195C30.0131836,46,30.0063477,46,30,46H18.0200195  C18.0131836,46,18.0073242,46,18,46H6c-0.5522461,0-1-0.4472656-1-1c0-2.2921753,1.5595093-4.2086792,3.6668701-4.7965698  C8.2473755,39.5708618,8,38.8143921,8,38c0-2.2060547,1.7944336-4,4-4s4,1.7939453,4,4  c0,0.8143311-0.2473145,1.5707397-0.666748,2.2032471c1.0811768,0.3016357,2.0183105,0.9433594,2.6721802,1.821106  c0.6536865-0.874939,1.5824585-1.5199585,2.661438-1.8209229C20.2473755,39.5708618,20,38.8143921,20,38  c0-2.2060547,1.7944336-4,4-4s4,1.7939453,4,4c0,0.8143311-0.2473145,1.5707397-0.666748,2.2032471  c1.0811768,0.3016357,2.0183105,0.9433594,2.6721802,1.821106c0.6536865-0.874939,1.5824585-1.5199585,2.661438-1.8209229  C32.2473755,39.5708618,32,38.8143921,32,38c0-2.2060547,1.7944336-4,4-4s4,1.7939453,4,4  c0,0.8143311-0.2473145,1.5707397-0.666748,2.2032471C41.3718262,40.7719116,42.8982544,42.5828857,42.9951172,44.7773438z M34,38  c0,1.1025391,0.8969727,2,2,2s2-0.8974609,2-2s-0.8969727-2-2-2S34,36.8974609,34,38z M22,38c0,1.1025391,0.8969727,2,2,2  s2-0.8974609,2-2s-0.8969727-2-2-2S22,36.8974609,22,38z M10,38c0,1.1025391,0.8969727,2,2,2s2-0.8974609,2-2s-0.8969727-2-2-2  S10,36.8974609,10,38z M16.8286133,44C16.4160156,42.8359375,15.3037109,42,14,42h-4c-1.3037109,0-2.4160156,0.8359375-2.8286133,2  H16.8286133z M28.8286133,44C28.4160156,42.8359375,27.3037109,42,26,42h-4c-1.3037109,0-2.4160156,0.8359375-2.8286133,2  H28.8286133z M40.8286133,44C40.4160156,42.8359375,39.3037109,42,38,42h-4c-1.3037109,0-2.4160156,0.8359375-2.8286133,2  H40.8286133z M27,17h5c0.5522461,0,1-0.4477539,1-1s-0.4477539-1-1-1h-5c-0.5522461,0-1,0.4477539-1,1S26.4477539,17,27,17z M41,15  h-6c-0.5522461,0-1,0.4477539-1,1s0.4477539,1,1,1h6c0.5522461,0,1-0.4477539,1-1S41.5522461,15,41,15z M27,14h10  c0.5522461,0,1-0.4477539,1-1s-0.4477539-1-1-1H27c-0.5522461,0-1,0.4477539-1,1S26.4477539,14,27,14z M41,12h-1  c-0.5522461,0-1,0.4477539-1,1s0.4477539,1,1,1h1c0.5522461,0,1-0.4477539,1-1S41.5522461,12,41,12z M41,9H31  c-0.5522461,0-1,0.4477539-1,1s0.4477539,1,1,1h10c0.5522461,0,1-0.4477539,1-1S41.5522461,9,41,9z M27,11h1  c0.5522461,0,1-0.4477539,1-1s-0.4477539-1-1-1h-1c-0.5522461,0-1,0.4477539-1,1S26.4477539,11,27,11z"/></svg>